<svg width="179" height="64" viewBox="0 0 179 64" fill="none" xmlns="http://www.w3.org/2000/svg">
<rect width="179" height="64" fill="white" fill-opacity="0.87"/>
<rect x="16" y="14" width="36" height="36" rx="18" fill="black" fill-opacity="0.87"/>
<path d="M33.8078 29.6449C34.4258 29.6448 35.0299 29.8279 35.5438 30.1711C36.0577 30.5144 36.4583 31.0023 36.6949 31.5732C36.9314 32.1441 36.9934 32.7724 36.8728 33.3785C36.7523 33.9846 36.4547 34.5414 36.0177 34.9784C35.5808 35.4154 35.024 35.7129 34.4179 35.8335C33.8118 35.954 33.1835 35.8921 32.6126 35.6555C32.0417 35.4189 31.5537 35.0184 31.2105 34.5045C30.8672 33.9906 30.6841 33.3864 30.6843 32.7684C30.6853 31.9403 31.0147 31.1465 31.6003 30.5609C32.1858 29.9754 32.9797 29.646 33.8078 29.6449ZM33.8078 28.1538C32.8949 28.1538 32.0025 28.4245 31.2435 28.9317C30.4845 29.4389 29.8929 30.1597 29.5436 31.0031C29.1943 31.8465 29.103 32.7746 29.2811 33.6699C29.4593 34.5652 29.8989 35.3876 30.5445 36.033C31.19 36.6785 32.0125 37.118 32.9078 37.296C33.8032 37.474 34.7312 37.3825 35.5745 37.033C36.4179 36.6836 37.1387 36.0919 37.6457 35.3328C38.1528 34.5737 38.4233 33.6813 38.4232 32.7684C38.4232 32.1623 38.3038 31.5622 38.0718 31.0023C37.8399 30.4424 37.4999 29.9336 37.0713 29.5051C36.6427 29.0766 36.1339 28.7367 35.5739 28.5048C35.014 28.273 34.4138 28.1537 33.8078 28.1538Z" fill="white"/>
<path d="M33.8272 41.9998H33.8003C31.9543 41.9897 30.1633 41.3842 28.705 40.2773C28.5496 40.153 28.45 39.9742 28.4276 39.7791C28.4053 39.5839 28.4619 39.388 28.5854 39.2332C28.7089 39.0783 28.8894 38.9769 29.0884 38.9506C29.2874 38.9243 29.489 38.9752 29.6501 39.0925C30.8394 39.9951 32.2999 40.489 33.8053 40.4976H33.8272C35.3403 40.4946 36.8095 40.0003 38.0043 39.0925C38.0836 39.0291 38.175 38.9819 38.2732 38.9535C38.3714 38.9252 38.4744 38.9164 38.5762 38.9275C38.678 38.9387 38.7764 38.9696 38.8658 39.0185C38.9551 39.0674 39.0336 39.1332 39.0966 39.2122C39.1595 39.2911 39.2058 39.3816 39.2325 39.4782C39.2592 39.5749 39.2659 39.6758 39.2522 39.775C39.2385 39.8742 39.2046 39.9698 39.1526 40.056C39.1006 40.1423 39.0315 40.2175 38.9494 40.2773C37.484 41.3899 35.6825 41.9957 33.8272 41.9998Z" fill="white"/>
<path d="M33.8062 25.8462C33.6026 25.8459 33.4073 25.7628 33.2634 25.6152C33.1194 25.4675 33.0386 25.2673 33.0386 25.0586V22.7615C33.0452 22.5572 33.129 22.3636 33.2723 22.2215C33.4156 22.0794 33.6072 22 33.8066 22C34.0061 22 34.1977 22.0794 34.341 22.2215C34.4843 22.3636 34.5681 22.5572 34.5747 22.7615V25.0586C34.5747 25.2675 34.4938 25.4678 34.3496 25.6155C34.2055 25.7632 34.01 25.8462 33.8062 25.8462Z" fill="#B9BCF6"/>
<path d="M44.1796 33.5417H41.898C41.7952 33.5417 41.6935 33.5218 41.5986 33.483C41.5037 33.4443 41.4175 33.3875 41.3448 33.3159C41.2722 33.2444 41.2146 33.1594 41.1753 33.0659C41.136 32.9723 41.1157 32.8721 41.1157 32.7709C41.1157 32.6696 41.136 32.5694 41.1753 32.4759C41.2146 32.3823 41.2722 32.2974 41.3448 32.2258C41.4175 32.1542 41.5037 32.0974 41.5986 32.0587C41.6935 32.0199 41.7952 32 41.898 32H44.1796C44.3871 32 44.5861 32.0812 44.7328 32.2258C44.8795 32.3703 44.9619 32.5664 44.9619 32.7709C44.9619 32.9753 44.8795 33.1714 44.7328 33.3159C44.5861 33.4605 44.3871 33.5417 44.1796 33.5417Z" fill="#FFF14E"/>
<path d="M44.1796 33.5417H41.898C41.7952 33.5417 41.6935 33.5218 41.5986 33.483C41.5037 33.4443 41.4175 33.3875 41.3448 33.3159C41.2722 33.2444 41.2146 33.1594 41.1753 33.0659C41.136 32.9723 41.1157 32.8721 41.1157 32.7709C41.1157 32.6696 41.136 32.5694 41.1753 32.4759C41.2146 32.3823 41.2722 32.2974 41.3448 32.2258C41.4175 32.1542 41.5037 32.0974 41.5986 32.0587C41.6935 32.0199 41.7952 32 41.898 32H44.1796C44.3871 32 44.5861 32.0812 44.7328 32.2258C44.8795 32.3703 44.9619 32.5664 44.9619 32.7709C44.9619 32.9753 44.8795 33.1714 44.7328 33.3159C44.5861 33.4605 44.3871 33.5417 44.1796 33.5417Z" fill="white" fill-opacity="0.24"/>
<path d="M26.1025 33.5417H23.8208C23.7181 33.5417 23.6164 33.5218 23.5215 33.483C23.4266 33.4443 23.3403 33.3875 23.2677 33.3159C23.195 33.2444 23.1374 33.1594 23.0981 33.0659C23.0588 32.9723 23.0386 32.8721 23.0386 32.7709C23.0386 32.6696 23.0588 32.5694 23.0981 32.4759C23.1374 32.3823 23.195 32.2974 23.2677 32.2258C23.3403 32.1542 23.4266 32.0974 23.5215 32.0587C23.6164 32.0199 23.7181 32 23.8208 32H26.1025C26.2052 32 26.3069 32.0199 26.4018 32.0587C26.4967 32.0974 26.583 32.1542 26.6556 32.2258C26.7283 32.2974 26.7859 32.3823 26.8252 32.4759C26.8645 32.5694 26.8847 32.6696 26.8847 32.7709C26.8847 32.8721 26.8645 32.9723 26.8252 33.0659C26.7859 33.1594 26.7283 33.2444 26.6556 33.3159C26.583 33.3875 26.4967 33.4443 26.4018 33.483C26.3069 33.5218 26.2052 33.5417 26.1025 33.5417Z" fill="#73FF65"/>
<path d="M26.1025 33.5417H23.8208C23.7181 33.5417 23.6164 33.5218 23.5215 33.483C23.4266 33.4443 23.3403 33.3875 23.2677 33.3159C23.195 33.2444 23.1374 33.1594 23.0981 33.0659C23.0588 32.9723 23.0386 32.8721 23.0386 32.7709C23.0386 32.6696 23.0588 32.5694 23.0981 32.4759C23.1374 32.3823 23.195 32.2974 23.2677 32.2258C23.3403 32.1542 23.4266 32.0974 23.5215 32.0587C23.6164 32.0199 23.7181 32 23.8208 32H26.1025C26.2052 32 26.3069 32.0199 26.4018 32.0587C26.4967 32.0974 26.583 32.1542 26.6556 32.2258C26.7283 32.2974 26.7859 32.3823 26.8252 32.4759C26.8645 32.5694 26.8847 32.6696 26.8847 32.7709C26.8847 32.8721 26.8645 32.9723 26.8252 33.0659C26.7859 33.1594 26.7283 33.2444 26.6556 33.3159C26.583 33.3875 26.4967 33.4443 26.4018 33.483C26.3069 33.5218 26.2052 33.5417 26.1025 33.5417Z" fill="white" fill-opacity="0.24"/>
<path d="M39.9513 28.1541C39.8012 28.1542 39.6545 28.1098 39.5297 28.0265C39.4049 27.9432 39.3076 27.8247 39.2501 27.6861C39.1927 27.5474 39.1777 27.3949 39.207 27.2477C39.2363 27.1005 39.3086 26.9653 39.4148 26.8593L40.9802 25.2929C41.1231 25.1534 41.3153 25.0759 41.5151 25.0772C41.7148 25.0784 41.906 25.1584 42.0472 25.2997C42.1884 25.441 42.2682 25.6323 42.2693 25.832C42.2704 26.0318 42.1927 26.2239 42.0531 26.3668L40.4877 27.9323C40.4173 28.0028 40.3337 28.0586 40.2416 28.0967C40.1495 28.1348 40.0509 28.1543 39.9513 28.1541Z" fill="#FF7B3A"/>
<path d="M39.9513 28.1541C39.8012 28.1542 39.6545 28.1098 39.5297 28.0265C39.4049 27.9432 39.3076 27.8247 39.2501 27.6861C39.1927 27.5474 39.1777 27.3949 39.207 27.2477C39.2363 27.1005 39.3086 26.9653 39.4148 26.8593L40.9802 25.2929C41.1231 25.1534 41.3153 25.0759 41.5151 25.0772C41.7148 25.0784 41.906 25.1584 42.0472 25.2997C42.1884 25.441 42.2682 25.6323 42.2693 25.832C42.2704 26.0318 42.1927 26.2239 42.0531 26.3668L40.4877 27.9323C40.4173 28.0028 40.3337 28.0586 40.2416 28.0967C40.1495 28.1348 40.0509 28.1543 39.9513 28.1541Z" fill="white" fill-opacity="0.24"/>
<path d="M27.6642 28.1541C27.5646 28.1543 27.4659 28.1348 27.3739 28.0967C27.2818 28.0586 27.1982 28.0028 27.1278 27.9323L25.5624 26.3668C25.4228 26.2239 25.3451 26.0318 25.3462 25.832C25.3473 25.6323 25.4271 25.441 25.5683 25.2997C25.7095 25.1584 25.9007 25.0784 26.1004 25.0772C26.3002 25.0759 26.4923 25.1534 26.6353 25.2929L28.2007 26.8593C28.3069 26.9653 28.3792 27.1005 28.4085 27.2477C28.4378 27.3949 28.4228 27.5474 28.3654 27.6861C28.3079 27.8247 28.2106 27.9432 28.0858 28.0265C27.961 28.1098 27.8143 28.1542 27.6642 28.1541Z" fill="#599EF3"/>
<path d="M27.6642 28.1541C27.5646 28.1543 27.4659 28.1348 27.3739 28.0967C27.2818 28.0586 27.1982 28.0028 27.1278 27.9323L25.5624 26.3668C25.4228 26.2239 25.3451 26.0318 25.3462 25.832C25.3473 25.6323 25.4271 25.441 25.5683 25.2997C25.7095 25.1584 25.9007 25.0784 26.1004 25.0772C26.3002 25.0759 26.4923 25.1534 26.6353 25.2929L28.2007 26.8593C28.3069 26.9653 28.3792 27.1005 28.4085 27.2477C28.4378 27.3949 28.4228 27.5474 28.3654 27.6861C28.3079 27.8247 28.2106 27.9432 28.0858 28.0265C27.961 28.1098 27.8143 28.1542 27.6642 28.1541Z" fill="white" fill-opacity="0.24"/>
<path d="M66.272 37.192C65.1733 37.192 64.208 36.952 63.376 36.472C62.5547 35.9813 61.9093 35.2987 61.44 34.424C60.9813 33.5493 60.752 32.5413 60.752 31.4C60.752 30.2587 60.9813 29.256 61.44 28.392C61.9093 27.5173 62.5547 26.8347 63.376 26.344C64.208 25.8533 65.1733 25.608 66.272 25.608C67.3813 25.608 68.3467 25.8533 69.168 26.344C70 26.8347 70.6453 27.5173 71.104 28.392C71.5627 29.256 71.792 30.2587 71.792 31.4C71.792 32.5413 71.5627 33.5493 71.104 34.424C70.6453 35.288 70.016 35.96 69.216 36.44L72.048 39.16H70.304L68.032 36.952C67.488 37.112 66.9013 37.192 66.272 37.192ZM66.272 36.008C67.0933 36.008 67.8133 35.8267 68.432 35.464C69.0613 35.0907 69.5467 34.5627 69.888 33.88C70.24 33.1867 70.416 32.36 70.416 31.4C70.416 30.44 70.24 29.6187 69.888 28.936C69.5467 28.2533 69.0613 27.7307 68.432 27.368C67.8133 26.9947 67.0933 26.808 66.272 26.808C65.4507 26.808 64.7253 26.9947 64.096 27.368C63.4773 27.7307 62.992 28.2533 62.64 28.936C62.2987 29.6187 62.128 30.44 62.128 31.4C62.128 32.36 62.2987 33.1867 62.64 33.88C62.992 34.5627 63.4773 35.0907 64.096 35.464C64.7253 35.8267 65.4507 36.008 66.272 36.008ZM76.6719 37.192C75.7332 37.192 74.9865 36.9093 74.4319 36.344C73.8772 35.768 73.5999 34.888 73.5999 33.704V29.064H74.9439V33.56C74.9439 35.2133 75.6212 36.04 76.9759 36.04C77.6692 36.04 78.2399 35.7947 78.6879 35.304C79.1465 34.8027 79.3759 34.0933 79.3759 33.176V29.064H80.7199V37H79.5039L79.4079 35.576C79.1625 36.0773 78.7945 36.472 78.3039 36.76C77.8239 37.048 77.2799 37.192 76.6719 37.192ZM85.5721 37.192C84.9108 37.192 84.3615 37.08 83.9241 36.856C83.4868 36.632 83.1615 36.3333 82.9481 35.96C82.7348 35.5867 82.6281 35.1813 82.6281 34.744C82.6281 33.9333 82.9375 33.3093 83.5561 32.872C84.1748 32.4347 85.0175 32.216 86.0841 32.216H88.2281V32.12C88.2281 31.4267 88.0468 30.904 87.6841 30.552C87.3215 30.1893 86.8361 30.008 86.2281 30.008C85.7055 30.008 85.2521 30.1413 84.8681 30.408C84.4948 30.664 84.2601 31.0427 84.1641 31.544H82.7881C82.8415 30.968 83.0335 30.4827 83.3641 30.088C83.7055 29.6933 84.1268 29.3947 84.6281 29.192C85.1295 28.9787 85.6628 28.872 86.2281 28.872C87.3375 28.872 88.1695 29.1707 88.7241 29.768C89.2895 30.3547 89.5721 31.1387 89.5721 32.12V37H88.3721L88.2921 35.576C88.0681 36.024 87.7375 36.408 87.3001 36.728C86.8735 37.0373 86.2975 37.192 85.5721 37.192ZM85.7801 36.056C86.2921 36.056 86.7295 35.9227 87.0921 35.656C87.4655 35.3893 87.7481 35.0427 87.9401 34.616C88.1321 34.1893 88.2281 33.7413 88.2281 33.272V33.256H86.1961C85.4068 33.256 84.8468 33.3947 84.5161 33.672C84.1961 33.9387 84.0361 34.2747 84.0361 34.68C84.0361 35.096 84.1855 35.432 84.4841 35.688C84.7935 35.9333 85.2255 36.056 85.7801 36.056ZM91.5884 37V25.48H92.9324V37H91.5884ZM95.9513 27.304C95.6846 27.304 95.4606 27.2187 95.2793 27.048C95.1086 26.8667 95.0233 26.6427 95.0233 26.376C95.0233 26.12 95.1086 25.9067 95.2793 25.736C95.4606 25.5653 95.6846 25.48 95.9513 25.48C96.2073 25.48 96.4259 25.5653 96.6073 25.736C96.7886 25.9067 96.8793 26.12 96.8793 26.376C96.8793 26.6427 96.7886 26.8667 96.6073 27.048C96.4259 27.2187 96.2073 27.304 95.9513 27.304ZM95.2793 37V29.064H96.6233V37H95.2793ZM102.099 37C101.374 37 100.803 36.824 100.387 36.472C99.9714 36.12 99.7634 35.4853 99.7634 34.568V30.2H98.3874V29.064H99.7634L99.9394 27.16H101.107V29.064H103.443V30.2H101.107V34.568C101.107 35.0693 101.209 35.4107 101.411 35.592C101.614 35.7627 101.971 35.848 102.483 35.848H103.315V37H102.099ZM106.015 40.52L107.983 36.232H107.519L104.367 29.064H105.823L108.447 35.24L111.231 29.064H112.623L107.423 40.52H106.015ZM120.66 37.016L117.588 25.8H119.028L121.444 35.416L124.196 25.8H125.684L128.356 35.416L130.804 25.8H132.244L129.108 37H127.572L124.9 27.752L122.164 37L120.66 37.016ZM136.548 37.192C135.801 37.192 135.129 37.0213 134.532 36.68C133.935 36.3387 133.46 35.8587 133.108 35.24C132.767 34.6107 132.596 33.8747 132.596 33.032C132.596 32.1893 132.772 31.4587 133.124 30.84C133.476 30.2107 133.951 29.7253 134.548 29.384C135.156 29.0427 135.833 28.872 136.58 28.872C137.327 28.872 137.999 29.0427 138.596 29.384C139.193 29.7253 139.663 30.2107 140.004 30.84C140.356 31.4587 140.532 32.1893 140.532 33.032C140.532 33.8747 140.356 34.6107 140.004 35.24C139.652 35.8587 139.172 36.3387 138.564 36.68C137.967 37.0213 137.295 37.192 136.548 37.192ZM136.548 36.04C137.007 36.04 137.433 35.928 137.828 35.704C138.223 35.48 138.543 35.144 138.788 34.696C139.033 34.248 139.156 33.6933 139.156 33.032C139.156 32.3707 139.033 31.816 138.788 31.368C138.553 30.92 138.239 30.584 137.844 30.36C137.449 30.136 137.028 30.024 136.58 30.024C136.121 30.024 135.695 30.136 135.3 30.36C134.905 30.584 134.585 30.92 134.34 31.368C134.095 31.816 133.972 32.3707 133.972 33.032C133.972 33.6933 134.095 34.248 134.34 34.696C134.585 35.144 134.9 35.48 135.284 35.704C135.679 35.928 136.1 36.04 136.548 36.04ZM142.401 37V29.064H143.617L143.729 30.584C143.974 30.0613 144.348 29.6453 144.849 29.336C145.35 29.0267 145.969 28.872 146.705 28.872V30.28H146.337C145.868 30.28 145.436 30.3653 145.041 30.536C144.646 30.696 144.332 30.9733 144.097 31.368C143.862 31.7627 143.745 32.3067 143.745 33V37H142.401ZM148.213 37V25.48H149.557V32.408L152.805 29.064H154.453L150.933 32.648L154.901 37H153.189L149.557 32.888V37H148.213ZM158.847 37.192C157.898 37.192 157.108 36.952 156.479 36.472C155.85 35.992 155.482 35.3413 155.375 34.52H156.751C156.836 34.936 157.055 35.2987 157.407 35.608C157.77 35.9067 158.255 36.056 158.863 36.056C159.428 36.056 159.844 35.9387 160.111 35.704C160.378 35.4587 160.511 35.1707 160.511 34.84C160.511 34.36 160.335 34.04 159.983 33.88C159.642 33.72 159.156 33.576 158.527 33.448C158.1 33.3627 157.674 33.24 157.247 33.08C156.82 32.92 156.463 32.696 156.175 32.408C155.887 32.1093 155.743 31.72 155.743 31.24C155.743 30.5467 155.999 29.9813 156.511 29.544C157.034 29.096 157.738 28.872 158.623 28.872C159.466 28.872 160.154 29.0853 160.687 29.512C161.231 29.928 161.546 30.5253 161.631 31.304H160.303C160.25 30.8987 160.074 30.584 159.775 30.36C159.487 30.1253 159.098 30.008 158.607 30.008C158.127 30.008 157.754 30.1093 157.487 30.312C157.231 30.5147 157.103 30.7813 157.103 31.112C157.103 31.432 157.268 31.6827 157.599 31.864C157.94 32.0453 158.399 32.2 158.975 32.328C159.466 32.4347 159.93 32.568 160.367 32.728C160.815 32.8773 161.178 33.1067 161.455 33.416C161.743 33.7147 161.887 34.152 161.887 34.728C161.898 35.4427 161.626 36.0347 161.071 36.504C160.527 36.9627 159.786 37.192 158.847 37.192Z" fill="black" fill-opacity="0.87"/>
</svg>
